<mxfile host="Electron" agent="Mozilla/5.0 (Windows NT 10.0; Win64; x64) AppleWebKit/537.36 (KHTML, like Gecko) draw.io/24.7.8 Chrome/128.0.6613.36 Electron/32.0.1 Safari/537.36" version="24.7.8">
  <diagram name="Page-1" id="52a04d89-c75d-2922-d76d-85b35f80e030">
    <mxGraphModel dx="4732" dy="1351" grid="1" gridSize="10" guides="1" tooltips="1" connect="1" arrows="1" fold="1" page="1" pageScale="1" pageWidth="1100" pageHeight="850" background="none" math="0" shadow="0">
      <root>
        <mxCell id="0" />
        <mxCell id="1" parent="0" />
        <mxCell id="hy8dyhueCYfpXqwU5YHf-20" style="edgeStyle=orthogonalEdgeStyle;rounded=1;orthogonalLoop=1;jettySize=auto;html=1;" edge="1" parent="1" source="hy8dyhueCYfpXqwU5YHf-1" target="hy8dyhueCYfpXqwU5YHf-2">
          <mxGeometry relative="1" as="geometry">
            <Array as="points">
              <mxPoint x="-1430" y="520" />
              <mxPoint x="-1070" y="520" />
            </Array>
          </mxGeometry>
        </mxCell>
        <mxCell id="hy8dyhueCYfpXqwU5YHf-21" value="Registration Data" style="edgeLabel;html=1;align=center;verticalAlign=middle;resizable=0;points=[];" vertex="1" connectable="0" parent="hy8dyhueCYfpXqwU5YHf-20">
          <mxGeometry x="0.3319" y="5" relative="1" as="geometry">
            <mxPoint x="134" as="offset" />
          </mxGeometry>
        </mxCell>
        <mxCell id="hy8dyhueCYfpXqwU5YHf-30" style="edgeStyle=orthogonalEdgeStyle;rounded=1;orthogonalLoop=1;jettySize=auto;html=1;curved=0;" edge="1" parent="1" source="hy8dyhueCYfpXqwU5YHf-1" target="hy8dyhueCYfpXqwU5YHf-5">
          <mxGeometry relative="1" as="geometry">
            <Array as="points">
              <mxPoint x="-1400" y="460" />
              <mxPoint x="-910" y="460" />
            </Array>
          </mxGeometry>
        </mxCell>
        <mxCell id="hy8dyhueCYfpXqwU5YHf-31" value="Authentication Data" style="edgeLabel;html=1;align=center;verticalAlign=middle;resizable=0;points=[];" vertex="1" connectable="0" parent="hy8dyhueCYfpXqwU5YHf-30">
          <mxGeometry x="0.243" y="-4" relative="1" as="geometry">
            <mxPoint x="170" y="-10" as="offset" />
          </mxGeometry>
        </mxCell>
        <mxCell id="hy8dyhueCYfpXqwU5YHf-56" style="edgeStyle=orthogonalEdgeStyle;shape=connector;rounded=1;orthogonalLoop=1;jettySize=auto;html=1;strokeColor=default;align=center;verticalAlign=middle;fontFamily=Helvetica;fontSize=11;fontColor=default;labelBackgroundColor=default;endArrow=classic;" edge="1" parent="1" source="hy8dyhueCYfpXqwU5YHf-1" target="hy8dyhueCYfpXqwU5YHf-11">
          <mxGeometry relative="1" as="geometry">
            <Array as="points">
              <mxPoint x="-1340" y="320" />
              <mxPoint x="-630" y="320" />
            </Array>
          </mxGeometry>
        </mxCell>
        <mxCell id="hy8dyhueCYfpXqwU5YHf-57" value="Privacy Setting Choices" style="edgeLabel;html=1;align=center;verticalAlign=middle;resizable=0;points=[];fontFamily=Helvetica;fontSize=11;fontColor=default;labelBackgroundColor=default;" vertex="1" connectable="0" parent="hy8dyhueCYfpXqwU5YHf-56">
          <mxGeometry x="0.5796" relative="1" as="geometry">
            <mxPoint x="-1" as="offset" />
          </mxGeometry>
        </mxCell>
        <mxCell id="hy8dyhueCYfpXqwU5YHf-67" style="edgeStyle=orthogonalEdgeStyle;shape=connector;rounded=1;orthogonalLoop=1;jettySize=auto;html=1;strokeColor=default;align=center;verticalAlign=middle;fontFamily=Helvetica;fontSize=11;fontColor=default;labelBackgroundColor=default;endArrow=classic;" edge="1" parent="1" source="hy8dyhueCYfpXqwU5YHf-1" target="hy8dyhueCYfpXqwU5YHf-9">
          <mxGeometry relative="1" as="geometry">
            <Array as="points">
              <mxPoint x="-1310" y="260" />
              <mxPoint x="-480" y="260" />
            </Array>
          </mxGeometry>
        </mxCell>
        <mxCell id="hy8dyhueCYfpXqwU5YHf-68" value="Device Token" style="edgeLabel;html=1;align=center;verticalAlign=middle;resizable=0;points=[];fontFamily=Helvetica;fontSize=11;fontColor=default;labelBackgroundColor=default;" vertex="1" connectable="0" parent="hy8dyhueCYfpXqwU5YHf-67">
          <mxGeometry x="0.674" y="-1" relative="1" as="geometry">
            <mxPoint as="offset" />
          </mxGeometry>
        </mxCell>
        <mxCell id="hy8dyhueCYfpXqwU5YHf-69" style="edgeStyle=orthogonalEdgeStyle;shape=connector;rounded=1;orthogonalLoop=1;jettySize=auto;html=1;strokeColor=default;align=center;verticalAlign=middle;fontFamily=Helvetica;fontSize=11;fontColor=default;labelBackgroundColor=default;endArrow=classic;" edge="1" parent="1" source="hy8dyhueCYfpXqwU5YHf-1" target="hy8dyhueCYfpXqwU5YHf-9">
          <mxGeometry relative="1" as="geometry">
            <Array as="points">
              <mxPoint x="-1320" y="280" />
              <mxPoint x="-500" y="280" />
            </Array>
          </mxGeometry>
        </mxCell>
        <mxCell id="hy8dyhueCYfpXqwU5YHf-70" value="Logout Request" style="edgeLabel;html=1;align=center;verticalAlign=middle;resizable=0;points=[];fontFamily=Helvetica;fontSize=11;fontColor=default;labelBackgroundColor=default;" vertex="1" connectable="0" parent="hy8dyhueCYfpXqwU5YHf-69">
          <mxGeometry x="0.7056" y="3" relative="1" as="geometry">
            <mxPoint as="offset" />
          </mxGeometry>
        </mxCell>
        <mxCell id="hy8dyhueCYfpXqwU5YHf-1" value="&lt;strong&gt;&lt;span style=&quot;font-size:11.0pt;line-height:&lt;br/&gt;107%;font-family:&amp;quot;Calibri&amp;quot;,sans-serif;mso-ascii-theme-font:minor-latin;&lt;br/&gt;mso-fareast-font-family:Calibri;mso-fareast-theme-font:minor-latin;mso-hansi-theme-font:&lt;br/&gt;minor-latin;mso-bidi-font-family:Arial;mso-bidi-theme-font:minor-bidi;&lt;br/&gt;mso-ansi-language:EN-US;mso-fareast-language:EN-US;mso-bidi-language:AR-SA&quot;&gt;User&lt;/span&gt;&lt;/strong&gt;" style="whiteSpace=wrap;html=1;rounded=0;shadow=0;comic=0;labelBackgroundColor=none;strokeWidth=1;fontFamily=Verdana;fontSize=12;align=center;" vertex="1" parent="1">
          <mxGeometry x="-1450" y="40" width="190" height="50" as="geometry" />
        </mxCell>
        <mxCell id="hy8dyhueCYfpXqwU5YHf-22" style="edgeStyle=orthogonalEdgeStyle;rounded=1;orthogonalLoop=1;jettySize=auto;html=1;" edge="1" parent="1" source="hy8dyhueCYfpXqwU5YHf-2" target="hy8dyhueCYfpXqwU5YHf-13">
          <mxGeometry relative="1" as="geometry">
            <Array as="points">
              <mxPoint x="-1020" y="140" />
              <mxPoint x="-200" y="140" />
            </Array>
          </mxGeometry>
        </mxCell>
        <mxCell id="hy8dyhueCYfpXqwU5YHf-23" value="OTP Request" style="edgeLabel;html=1;align=center;verticalAlign=middle;resizable=0;points=[];" vertex="1" connectable="0" parent="hy8dyhueCYfpXqwU5YHf-22">
          <mxGeometry x="-0.3467" y="-4" relative="1" as="geometry">
            <mxPoint x="46" y="-16" as="offset" />
          </mxGeometry>
        </mxCell>
        <mxCell id="hy8dyhueCYfpXqwU5YHf-28" style="edgeStyle=orthogonalEdgeStyle;rounded=1;orthogonalLoop=1;jettySize=auto;html=1;" edge="1" parent="1" source="hy8dyhueCYfpXqwU5YHf-2" target="hy8dyhueCYfpXqwU5YHf-1">
          <mxGeometry relative="1" as="geometry">
            <Array as="points">
              <mxPoint x="-1090" y="540" />
              <mxPoint x="-1440" y="540" />
            </Array>
          </mxGeometry>
        </mxCell>
        <mxCell id="hy8dyhueCYfpXqwU5YHf-29" value="Registration Confirmation" style="edgeLabel;html=1;align=center;verticalAlign=middle;resizable=0;points=[];" vertex="1" connectable="0" parent="hy8dyhueCYfpXqwU5YHf-28">
          <mxGeometry x="-0.0761" y="-3" relative="1" as="geometry">
            <mxPoint x="255" y="-1" as="offset" />
          </mxGeometry>
        </mxCell>
        <mxCell id="hy8dyhueCYfpXqwU5YHf-2" value="&lt;strong&gt;&lt;span style=&quot;font-size:11.0pt;line-height:&lt;br/&gt;107%;font-family:&amp;quot;Calibri&amp;quot;,sans-serif;mso-ascii-theme-font:minor-latin;&lt;br/&gt;mso-fareast-font-family:Calibri;mso-fareast-theme-font:minor-latin;mso-hansi-theme-font:&lt;br/&gt;minor-latin;mso-bidi-font-family:Arial;mso-bidi-theme-font:minor-bidi;&lt;br/&gt;mso-ansi-language:EN-US;mso-fareast-language:EN-US;mso-bidi-language:AR-SA&quot;&gt;P1.1&lt;/span&gt;&lt;/strong&gt;" style="swimlane;html=1;fontStyle=0;childLayout=stackLayout;horizontal=1;startSize=26;fillColor=#e0e0e0;horizontalStack=0;resizeParent=1;resizeLast=0;collapsible=1;marginBottom=0;swimlaneFillColor=#ffffff;align=center;rounded=1;shadow=0;comic=0;labelBackgroundColor=none;strokeWidth=1;fontFamily=Verdana;fontSize=12" vertex="1" parent="1">
          <mxGeometry x="-1100" y="570" width="140" height="52" as="geometry" />
        </mxCell>
        <mxCell id="hy8dyhueCYfpXqwU5YHf-3" value="&lt;strong&gt;&lt;span style=&quot;font-size:11.0pt;line-height:&lt;br/&gt;107%;font-family:&amp;quot;Calibri&amp;quot;,sans-serif;mso-ascii-theme-font:minor-latin;&lt;br/&gt;mso-fareast-font-family:Calibri;mso-fareast-theme-font:minor-latin;mso-hansi-theme-font:&lt;br/&gt;minor-latin;mso-bidi-font-family:Arial;mso-bidi-theme-font:minor-bidi;&lt;br/&gt;mso-ansi-language:EN-US;mso-fareast-language:EN-US;mso-bidi-language:AR-SA&quot;&gt;User&amp;nbsp; Registration&lt;/span&gt;&lt;/strong&gt;" style="text;html=1;strokeColor=none;fillColor=none;spacingLeft=4;spacingRight=4;whiteSpace=wrap;overflow=hidden;rotatable=0;points=[[0,0.5],[1,0.5]];portConstraint=eastwest;align=center;" vertex="1" parent="hy8dyhueCYfpXqwU5YHf-2">
          <mxGeometry y="26" width="140" height="26" as="geometry" />
        </mxCell>
        <mxCell id="hy8dyhueCYfpXqwU5YHf-34" style="edgeStyle=orthogonalEdgeStyle;rounded=1;orthogonalLoop=1;jettySize=auto;html=1;" edge="1" parent="1" source="hy8dyhueCYfpXqwU5YHf-4" target="hy8dyhueCYfpXqwU5YHf-5">
          <mxGeometry relative="1" as="geometry">
            <Array as="points">
              <mxPoint x="-92" y="520" />
            </Array>
          </mxGeometry>
        </mxCell>
        <mxCell id="hy8dyhueCYfpXqwU5YHf-35" value="User Authentication Info" style="edgeLabel;html=1;align=center;verticalAlign=middle;resizable=0;points=[];" vertex="1" connectable="0" parent="hy8dyhueCYfpXqwU5YHf-34">
          <mxGeometry x="0.1116" y="1" relative="1" as="geometry">
            <mxPoint x="-217" y="-11" as="offset" />
          </mxGeometry>
        </mxCell>
        <mxCell id="hy8dyhueCYfpXqwU5YHf-49" style="edgeStyle=orthogonalEdgeStyle;shape=connector;rounded=1;orthogonalLoop=1;jettySize=auto;html=1;strokeColor=default;align=center;verticalAlign=middle;fontFamily=Helvetica;fontSize=11;fontColor=default;labelBackgroundColor=default;endArrow=classic;" edge="1" parent="1" source="hy8dyhueCYfpXqwU5YHf-4" target="hy8dyhueCYfpXqwU5YHf-7">
          <mxGeometry relative="1" as="geometry">
            <Array as="points">
              <mxPoint x="-100" y="510" />
              <mxPoint x="-410" y="510" />
              <mxPoint x="-410" y="460" />
            </Array>
          </mxGeometry>
        </mxCell>
        <mxCell id="hy8dyhueCYfpXqwU5YHf-50" value="Current User Profile" style="edgeLabel;html=1;align=center;verticalAlign=middle;resizable=0;points=[];fontFamily=Helvetica;fontSize=11;fontColor=default;labelBackgroundColor=default;" vertex="1" connectable="0" parent="hy8dyhueCYfpXqwU5YHf-49">
          <mxGeometry x="0.0623" y="-4" relative="1" as="geometry">
            <mxPoint x="-174" y="-54" as="offset" />
          </mxGeometry>
        </mxCell>
        <mxCell id="hy8dyhueCYfpXqwU5YHf-60" style="edgeStyle=orthogonalEdgeStyle;shape=connector;rounded=1;orthogonalLoop=1;jettySize=auto;html=1;strokeColor=default;align=center;verticalAlign=middle;fontFamily=Helvetica;fontSize=11;fontColor=default;labelBackgroundColor=default;endArrow=classic;" edge="1" parent="1" source="hy8dyhueCYfpXqwU5YHf-4" target="hy8dyhueCYfpXqwU5YHf-11">
          <mxGeometry relative="1" as="geometry">
            <Array as="points">
              <mxPoint x="-110" y="420" />
            </Array>
          </mxGeometry>
        </mxCell>
        <mxCell id="hy8dyhueCYfpXqwU5YHf-61" value="Current Privacy Settings" style="edgeLabel;html=1;align=center;verticalAlign=middle;resizable=0;points=[];fontFamily=Helvetica;fontSize=11;fontColor=default;labelBackgroundColor=default;" vertex="1" connectable="0" parent="hy8dyhueCYfpXqwU5YHf-60">
          <mxGeometry x="0.4835" y="-1" relative="1" as="geometry">
            <mxPoint x="-17" as="offset" />
          </mxGeometry>
        </mxCell>
        <mxCell id="hy8dyhueCYfpXqwU5YHf-4" value="&lt;strong&gt;&lt;span style=&quot;font-size:11.0pt;line-height:&lt;br/&gt;107%;font-family:&amp;quot;Calibri&amp;quot;,sans-serif;mso-ascii-theme-font:minor-latin;&lt;br/&gt;mso-fareast-font-family:Calibri;mso-fareast-theme-font:minor-latin;mso-hansi-theme-font:&lt;br/&gt;minor-latin;mso-bidi-font-family:Arial;mso-bidi-theme-font:minor-bidi;&lt;br/&gt;mso-ansi-language:EN-US;mso-fareast-language:EN-US;mso-bidi-language:AR-SA&quot;&gt;D1:&lt;br/&gt;User Data&lt;/span&gt;&lt;/strong&gt;" style="html=1;rounded=0;shadow=0;comic=0;labelBackgroundColor=none;strokeWidth=2;fontFamily=Verdana;fontSize=12;align=center;shape=mxgraph.ios7ui.horLines;" vertex="1" parent="1">
          <mxGeometry x="-160" y="442" width="135" height="50" as="geometry" />
        </mxCell>
        <mxCell id="hy8dyhueCYfpXqwU5YHf-36" style="edgeStyle=orthogonalEdgeStyle;rounded=1;orthogonalLoop=1;jettySize=auto;html=1;" edge="1" parent="1" source="hy8dyhueCYfpXqwU5YHf-5" target="hy8dyhueCYfpXqwU5YHf-4">
          <mxGeometry relative="1" as="geometry">
            <Array as="points">
              <mxPoint x="-480" y="536" />
              <mxPoint x="-480" y="570" />
              <mxPoint x="-50" y="570" />
            </Array>
          </mxGeometry>
        </mxCell>
        <mxCell id="hy8dyhueCYfpXqwU5YHf-37" value="Update User Online Status" style="edgeLabel;html=1;align=center;verticalAlign=middle;resizable=0;points=[];" vertex="1" connectable="0" parent="hy8dyhueCYfpXqwU5YHf-36">
          <mxGeometry x="-0.2953" y="3" relative="1" as="geometry">
            <mxPoint x="-105" y="-4" as="offset" />
          </mxGeometry>
        </mxCell>
        <mxCell id="hy8dyhueCYfpXqwU5YHf-38" style="edgeStyle=orthogonalEdgeStyle;rounded=1;orthogonalLoop=1;jettySize=auto;html=1;" edge="1" parent="1" source="hy8dyhueCYfpXqwU5YHf-5" target="hy8dyhueCYfpXqwU5YHf-14">
          <mxGeometry relative="1" as="geometry">
            <Array as="points">
              <mxPoint x="-230" y="550" />
              <mxPoint x="-230" y="390" />
              <mxPoint x="-80" y="390" />
            </Array>
          </mxGeometry>
        </mxCell>
        <mxCell id="hy8dyhueCYfpXqwU5YHf-39" value="New Session Record" style="edgeLabel;html=1;align=center;verticalAlign=middle;resizable=0;points=[];" vertex="1" connectable="0" parent="hy8dyhueCYfpXqwU5YHf-38">
          <mxGeometry x="-0.2379" y="-4" relative="1" as="geometry">
            <mxPoint x="-253" y="-10" as="offset" />
          </mxGeometry>
        </mxCell>
        <mxCell id="hy8dyhueCYfpXqwU5YHf-40" style="edgeStyle=orthogonalEdgeStyle;rounded=1;orthogonalLoop=1;jettySize=auto;html=1;" edge="1" parent="1" source="hy8dyhueCYfpXqwU5YHf-5" target="hy8dyhueCYfpXqwU5YHf-1">
          <mxGeometry relative="1" as="geometry">
            <Array as="points">
              <mxPoint x="-930" y="480" />
              <mxPoint x="-1410" y="480" />
            </Array>
          </mxGeometry>
        </mxCell>
        <mxCell id="hy8dyhueCYfpXqwU5YHf-41" value="Authentication Response" style="edgeLabel;html=1;align=center;verticalAlign=middle;resizable=0;points=[];" vertex="1" connectable="0" parent="hy8dyhueCYfpXqwU5YHf-40">
          <mxGeometry x="-0.2164" y="-4" relative="1" as="geometry">
            <mxPoint x="211" y="-4" as="offset" />
          </mxGeometry>
        </mxCell>
        <mxCell id="hy8dyhueCYfpXqwU5YHf-5" value="&lt;strong&gt;&lt;span style=&quot;font-size:11.0pt;line-height:&lt;br/&gt;107%;font-family:&amp;quot;Calibri&amp;quot;,sans-serif;mso-ascii-theme-font:minor-latin;&lt;br/&gt;mso-fareast-font-family:Calibri;mso-fareast-theme-font:minor-latin;mso-hansi-theme-font:&lt;br/&gt;minor-latin;mso-bidi-font-family:Arial;mso-bidi-theme-font:minor-bidi;&lt;br/&gt;mso-ansi-language:EN-US;mso-fareast-language:EN-US;mso-bidi-language:AR-SA&quot;&gt;P1.2&lt;/span&gt;&lt;/strong&gt;" style="swimlane;html=1;fontStyle=0;childLayout=stackLayout;horizontal=1;startSize=26;fillColor=#e0e0e0;horizontalStack=0;resizeParent=1;resizeLast=0;collapsible=1;marginBottom=0;swimlaneFillColor=#ffffff;align=center;rounded=1;shadow=0;comic=0;labelBackgroundColor=none;strokeWidth=1;fontFamily=Verdana;fontSize=12" vertex="1" parent="1">
          <mxGeometry x="-940" y="510" width="140" height="52" as="geometry" />
        </mxCell>
        <mxCell id="hy8dyhueCYfpXqwU5YHf-6" value="&lt;strong&gt;&lt;span style=&quot;font-size:11.0pt;line-height:&lt;br/&gt;107%;font-family:&amp;quot;Calibri&amp;quot;,sans-serif;mso-ascii-theme-font:minor-latin;&lt;br/&gt;mso-fareast-font-family:Calibri;mso-fareast-theme-font:minor-latin;mso-hansi-theme-font:&lt;br/&gt;minor-latin;mso-bidi-font-family:Arial;mso-bidi-theme-font:minor-bidi;&lt;br/&gt;mso-ansi-language:EN-US;mso-fareast-language:EN-US;mso-bidi-language:AR-SA&quot;&gt;User Authentication&lt;/span&gt;&lt;/strong&gt;" style="text;html=1;strokeColor=none;fillColor=none;spacingLeft=4;spacingRight=4;whiteSpace=wrap;overflow=hidden;rotatable=0;points=[[0,0.5],[1,0.5]];portConstraint=eastwest;align=center;" vertex="1" parent="hy8dyhueCYfpXqwU5YHf-5">
          <mxGeometry y="26" width="140" height="26" as="geometry" />
        </mxCell>
        <mxCell id="hy8dyhueCYfpXqwU5YHf-45" style="edgeStyle=orthogonalEdgeStyle;shape=connector;rounded=1;orthogonalLoop=1;jettySize=auto;html=1;strokeColor=default;align=center;verticalAlign=middle;fontFamily=Helvetica;fontSize=11;fontColor=default;labelBackgroundColor=default;endArrow=classic;" edge="1" parent="1" source="hy8dyhueCYfpXqwU5YHf-7" target="hy8dyhueCYfpXqwU5YHf-13">
          <mxGeometry relative="1" as="geometry">
            <Array as="points">
              <mxPoint x="-730" y="160" />
              <mxPoint x="-180" y="160" />
            </Array>
          </mxGeometry>
        </mxCell>
        <mxCell id="hy8dyhueCYfpXqwU5YHf-46" value="Profile Update Data" style="edgeLabel;html=1;align=center;verticalAlign=middle;resizable=0;points=[];fontFamily=Helvetica;fontSize=11;fontColor=default;labelBackgroundColor=default;" vertex="1" connectable="0" parent="hy8dyhueCYfpXqwU5YHf-45">
          <mxGeometry x="-0.5646" y="4" relative="1" as="geometry">
            <mxPoint as="offset" />
          </mxGeometry>
        </mxCell>
        <mxCell id="hy8dyhueCYfpXqwU5YHf-51" style="edgeStyle=orthogonalEdgeStyle;shape=connector;rounded=1;orthogonalLoop=1;jettySize=auto;html=1;strokeColor=default;align=center;verticalAlign=middle;fontFamily=Helvetica;fontSize=11;fontColor=default;labelBackgroundColor=default;endArrow=classic;" edge="1" parent="1" source="hy8dyhueCYfpXqwU5YHf-7" target="hy8dyhueCYfpXqwU5YHf-4">
          <mxGeometry relative="1" as="geometry">
            <Array as="points">
              <mxPoint x="-460" y="490" />
              <mxPoint x="-460" y="540" />
              <mxPoint x="-70" y="540" />
            </Array>
          </mxGeometry>
        </mxCell>
        <mxCell id="hy8dyhueCYfpXqwU5YHf-53" value="Updated User Profile" style="edgeLabel;html=1;align=center;verticalAlign=middle;resizable=0;points=[];fontFamily=Helvetica;fontSize=11;fontColor=default;labelBackgroundColor=default;" vertex="1" connectable="0" parent="hy8dyhueCYfpXqwU5YHf-51">
          <mxGeometry x="-0.5649" y="-3" relative="1" as="geometry">
            <mxPoint x="-50" y="-10" as="offset" />
          </mxGeometry>
        </mxCell>
        <mxCell id="hy8dyhueCYfpXqwU5YHf-54" style="edgeStyle=orthogonalEdgeStyle;shape=connector;rounded=1;orthogonalLoop=1;jettySize=auto;html=1;strokeColor=default;align=center;verticalAlign=middle;fontFamily=Helvetica;fontSize=11;fontColor=default;labelBackgroundColor=default;endArrow=classic;" edge="1" parent="1" source="hy8dyhueCYfpXqwU5YHf-7" target="hy8dyhueCYfpXqwU5YHf-1">
          <mxGeometry relative="1" as="geometry">
            <Array as="points">
              <mxPoint x="-790" y="410" />
              <mxPoint x="-1380" y="410" />
            </Array>
          </mxGeometry>
        </mxCell>
        <mxCell id="hy8dyhueCYfpXqwU5YHf-55" value="Profile Update Confirmation" style="edgeLabel;html=1;align=center;verticalAlign=middle;resizable=0;points=[];fontFamily=Helvetica;fontSize=11;fontColor=default;labelBackgroundColor=default;" vertex="1" connectable="0" parent="hy8dyhueCYfpXqwU5YHf-54">
          <mxGeometry x="-0.5843" y="-4" relative="1" as="geometry">
            <mxPoint as="offset" />
          </mxGeometry>
        </mxCell>
        <mxCell id="hy8dyhueCYfpXqwU5YHf-71" style="edgeStyle=orthogonalEdgeStyle;shape=connector;rounded=1;orthogonalLoop=1;jettySize=auto;html=1;strokeColor=default;align=center;verticalAlign=middle;fontFamily=Helvetica;fontSize=11;fontColor=default;labelBackgroundColor=default;endArrow=classic;" edge="1" parent="1" source="hy8dyhueCYfpXqwU5YHf-9" target="hy8dyhueCYfpXqwU5YHf-14">
          <mxGeometry relative="1" as="geometry">
            <Array as="points">
              <mxPoint x="-92" y="360" />
            </Array>
          </mxGeometry>
        </mxCell>
        <mxCell id="hy8dyhueCYfpXqwU5YHf-72" value="Write/Update Session Record" style="edgeLabel;html=1;align=center;verticalAlign=middle;resizable=0;points=[];fontFamily=Helvetica;fontSize=11;fontColor=default;labelBackgroundColor=default;" vertex="1" connectable="0" parent="hy8dyhueCYfpXqwU5YHf-71">
          <mxGeometry x="0.5888" y="-2" relative="1" as="geometry">
            <mxPoint x="-191" y="-10" as="offset" />
          </mxGeometry>
        </mxCell>
        <mxCell id="hy8dyhueCYfpXqwU5YHf-73" style="edgeStyle=orthogonalEdgeStyle;shape=connector;rounded=1;orthogonalLoop=1;jettySize=auto;html=1;strokeColor=default;align=center;verticalAlign=middle;fontFamily=Helvetica;fontSize=11;fontColor=default;labelBackgroundColor=default;endArrow=classic;" edge="1" parent="1" source="hy8dyhueCYfpXqwU5YHf-9" target="hy8dyhueCYfpXqwU5YHf-14">
          <mxGeometry relative="1" as="geometry">
            <Array as="points">
              <mxPoint x="-100" y="336" />
            </Array>
          </mxGeometry>
        </mxCell>
        <mxCell id="hy8dyhueCYfpXqwU5YHf-74" value="Delete Session Record" style="edgeLabel;html=1;align=center;verticalAlign=middle;resizable=0;points=[];fontFamily=Helvetica;fontSize=11;fontColor=default;labelBackgroundColor=default;" vertex="1" connectable="0" parent="hy8dyhueCYfpXqwU5YHf-73">
          <mxGeometry x="-0.7126" relative="1" as="geometry">
            <mxPoint as="offset" />
          </mxGeometry>
        </mxCell>
        <mxCell id="hy8dyhueCYfpXqwU5YHf-77" style="edgeStyle=orthogonalEdgeStyle;shape=connector;rounded=1;orthogonalLoop=1;jettySize=auto;html=1;strokeColor=default;align=center;verticalAlign=middle;fontFamily=Helvetica;fontSize=11;fontColor=default;labelBackgroundColor=default;endArrow=classic;" edge="1" parent="1" source="hy8dyhueCYfpXqwU5YHf-9" target="hy8dyhueCYfpXqwU5YHf-14">
          <mxGeometry relative="1" as="geometry">
            <Array as="points">
              <mxPoint x="-110" y="320" />
            </Array>
          </mxGeometry>
        </mxCell>
        <mxCell id="hy8dyhueCYfpXqwU5YHf-78" value="Session Status" style="edgeLabel;html=1;align=center;verticalAlign=middle;resizable=0;points=[];fontFamily=Helvetica;fontSize=11;fontColor=default;labelBackgroundColor=default;" vertex="1" connectable="0" parent="hy8dyhueCYfpXqwU5YHf-77">
          <mxGeometry x="-0.6703" y="3" relative="1" as="geometry">
            <mxPoint x="3" y="-7" as="offset" />
          </mxGeometry>
        </mxCell>
        <mxCell id="hy8dyhueCYfpXqwU5YHf-9" value="&lt;strong&gt;&lt;span style=&quot;font-size:11.0pt;line-height:&lt;br/&gt;107%;font-family:&amp;quot;Calibri&amp;quot;,sans-serif;mso-ascii-theme-font:minor-latin;&lt;br/&gt;mso-fareast-font-family:Calibri;mso-fareast-theme-font:minor-latin;mso-hansi-theme-font:&lt;br/&gt;minor-latin;mso-bidi-font-family:Arial;mso-bidi-theme-font:minor-bidi;&lt;br/&gt;mso-ansi-language:EN-US;mso-fareast-language:EN-US;mso-bidi-language:AR-SA&quot;&gt;P1.5&lt;/span&gt;&lt;/strong&gt;" style="swimlane;html=1;fontStyle=0;childLayout=stackLayout;horizontal=1;startSize=26;fillColor=#e0e0e0;horizontalStack=0;resizeParent=1;resizeLast=0;collapsible=1;marginBottom=0;swimlaneFillColor=#ffffff;align=center;rounded=1;shadow=0;comic=0;labelBackgroundColor=none;strokeWidth=1;fontFamily=Verdana;fontSize=12" vertex="1" parent="1">
          <mxGeometry x="-510" y="310" width="140" height="52" as="geometry" />
        </mxCell>
        <mxCell id="hy8dyhueCYfpXqwU5YHf-10" value="&lt;strong&gt;&lt;span style=&quot;font-size:11.0pt;line-height:&lt;br/&gt;107%;font-family:&amp;quot;Calibri&amp;quot;,sans-serif;mso-ascii-theme-font:minor-latin;&lt;br/&gt;mso-fareast-font-family:Calibri;mso-fareast-theme-font:minor-latin;mso-hansi-theme-font:&lt;br/&gt;minor-latin;mso-bidi-font-family:Arial;mso-bidi-theme-font:minor-bidi;&lt;br/&gt;mso-ansi-language:EN-US;mso-fareast-language:EN-US;mso-bidi-language:AR-SA&quot;&gt;Session&amp;nbsp;Manageme&lt;/span&gt;&lt;/strong&gt;" style="text;html=1;strokeColor=none;fillColor=none;spacingLeft=4;spacingRight=4;whiteSpace=wrap;overflow=hidden;rotatable=0;points=[[0,0.5],[1,0.5]];portConstraint=eastwest;align=center;" vertex="1" parent="hy8dyhueCYfpXqwU5YHf-9">
          <mxGeometry y="26" width="140" height="26" as="geometry" />
        </mxCell>
        <mxCell id="hy8dyhueCYfpXqwU5YHf-58" style="edgeStyle=orthogonalEdgeStyle;shape=connector;rounded=1;orthogonalLoop=1;jettySize=auto;html=1;strokeColor=default;align=center;verticalAlign=middle;fontFamily=Helvetica;fontSize=11;fontColor=default;labelBackgroundColor=default;endArrow=classic;" edge="1" parent="1" source="hy8dyhueCYfpXqwU5YHf-11" target="hy8dyhueCYfpXqwU5YHf-4">
          <mxGeometry relative="1" as="geometry">
            <Array as="points">
              <mxPoint x="-92" y="410" />
            </Array>
          </mxGeometry>
        </mxCell>
        <mxCell id="hy8dyhueCYfpXqwU5YHf-59" value="Read Current Privacy Settings" style="edgeLabel;html=1;align=center;verticalAlign=middle;resizable=0;points=[];fontFamily=Helvetica;fontSize=11;fontColor=default;labelBackgroundColor=default;" vertex="1" connectable="0" parent="hy8dyhueCYfpXqwU5YHf-58">
          <mxGeometry x="-0.7398" y="-4" relative="1" as="geometry">
            <mxPoint x="20" y="-9" as="offset" />
          </mxGeometry>
        </mxCell>
        <mxCell id="hy8dyhueCYfpXqwU5YHf-62" style="edgeStyle=orthogonalEdgeStyle;shape=connector;rounded=1;orthogonalLoop=1;jettySize=auto;html=1;strokeColor=default;align=center;verticalAlign=middle;fontFamily=Helvetica;fontSize=11;fontColor=default;labelBackgroundColor=default;endArrow=classic;" edge="1" parent="1" source="hy8dyhueCYfpXqwU5YHf-11" target="hy8dyhueCYfpXqwU5YHf-4">
          <mxGeometry relative="1" as="geometry">
            <Array as="points">
              <mxPoint x="-30" y="400" />
            </Array>
          </mxGeometry>
        </mxCell>
        <mxCell id="hy8dyhueCYfpXqwU5YHf-63" value="Updated Privacy Settings" style="edgeLabel;html=1;align=center;verticalAlign=middle;resizable=0;points=[];fontFamily=Helvetica;fontSize=11;fontColor=default;labelBackgroundColor=default;" vertex="1" connectable="0" parent="hy8dyhueCYfpXqwU5YHf-62">
          <mxGeometry x="-0.805" y="-3" relative="1" as="geometry">
            <mxPoint x="10" y="-10" as="offset" />
          </mxGeometry>
        </mxCell>
        <mxCell id="hy8dyhueCYfpXqwU5YHf-64" style="edgeStyle=orthogonalEdgeStyle;shape=connector;rounded=1;orthogonalLoop=1;jettySize=auto;html=1;strokeColor=default;align=center;verticalAlign=middle;fontFamily=Helvetica;fontSize=11;fontColor=default;labelBackgroundColor=default;endArrow=classic;" edge="1" parent="1" source="hy8dyhueCYfpXqwU5YHf-11" target="hy8dyhueCYfpXqwU5YHf-1">
          <mxGeometry relative="1" as="geometry">
            <Array as="points">
              <mxPoint x="-650" y="340" />
              <mxPoint x="-1350" y="340" />
            </Array>
          </mxGeometry>
        </mxCell>
        <mxCell id="hy8dyhueCYfpXqwU5YHf-65" value="Privacy Settings Confirmation" style="edgeLabel;html=1;align=center;verticalAlign=middle;resizable=0;points=[];fontFamily=Helvetica;fontSize=11;fontColor=default;labelBackgroundColor=default;" vertex="1" connectable="0" parent="hy8dyhueCYfpXqwU5YHf-64">
          <mxGeometry x="-0.5969" y="1" relative="1" as="geometry">
            <mxPoint x="55" y="-11" as="offset" />
          </mxGeometry>
        </mxCell>
        <mxCell id="hy8dyhueCYfpXqwU5YHf-11" value="&lt;strong&gt;&lt;span style=&quot;font-size:11.0pt;line-height:&lt;br/&gt;107%;font-family:&amp;quot;Calibri&amp;quot;,sans-serif;mso-ascii-theme-font:minor-latin;&lt;br/&gt;mso-fareast-font-family:Calibri;mso-fareast-theme-font:minor-latin;mso-hansi-theme-font:&lt;br/&gt;minor-latin;mso-bidi-font-family:Arial;mso-bidi-theme-font:minor-bidi;&lt;br/&gt;mso-ansi-language:EN-US;mso-fareast-language:EN-US;mso-bidi-language:AR-SA&quot;&gt;P1.4&lt;/span&gt;&lt;/strong&gt;" style="swimlane;html=1;fontStyle=0;childLayout=stackLayout;horizontal=1;startSize=26;fillColor=#e0e0e0;horizontalStack=0;resizeParent=1;resizeLast=0;collapsible=1;marginBottom=0;swimlaneFillColor=#ffffff;align=center;rounded=1;shadow=0;comic=0;labelBackgroundColor=none;strokeWidth=1;fontFamily=Verdana;fontSize=12" vertex="1" parent="1">
          <mxGeometry x="-660" y="370" width="140" height="70" as="geometry" />
        </mxCell>
        <mxCell id="hy8dyhueCYfpXqwU5YHf-12" value="&lt;strong&gt;&lt;span style=&quot;font-size:11.0pt;line-height:&lt;br/&gt;107%;font-family:&amp;quot;Calibri&amp;quot;,sans-serif;mso-ascii-theme-font:minor-latin;&lt;br/&gt;mso-fareast-font-family:Calibri;mso-fareast-theme-font:minor-latin;mso-hansi-theme-font:&lt;br/&gt;minor-latin;mso-bidi-font-family:Arial;mso-bidi-theme-font:minor-bidi;&lt;br/&gt;mso-ansi-language:EN-US;mso-fareast-language:EN-US;mso-bidi-language:AR-SA&quot;&gt;Privacy Settings Management&lt;/span&gt;&lt;/strong&gt;" style="text;html=1;strokeColor=none;fillColor=none;spacingLeft=4;spacingRight=4;whiteSpace=wrap;overflow=hidden;rotatable=0;points=[[0,0.5],[1,0.5]];portConstraint=eastwest;align=center;" vertex="1" parent="hy8dyhueCYfpXqwU5YHf-11">
          <mxGeometry y="26" width="140" height="44" as="geometry" />
        </mxCell>
        <mxCell id="hy8dyhueCYfpXqwU5YHf-24" style="edgeStyle=orthogonalEdgeStyle;rounded=1;orthogonalLoop=1;jettySize=auto;html=1;" edge="1" parent="1" source="hy8dyhueCYfpXqwU5YHf-13" target="hy8dyhueCYfpXqwU5YHf-2">
          <mxGeometry relative="1" as="geometry">
            <mxPoint x="-950" y="1080" as="sourcePoint" />
            <mxPoint x="-1110.0000000000002" y="1206" as="targetPoint" />
            <Array as="points">
              <mxPoint x="-210" y="120" />
              <mxPoint x="-1030" y="120" />
            </Array>
          </mxGeometry>
        </mxCell>
        <mxCell id="hy8dyhueCYfpXqwU5YHf-25" value="OTP Delivery Status" style="edgeLabel;html=1;align=center;verticalAlign=middle;resizable=0;points=[];" vertex="1" connectable="0" parent="hy8dyhueCYfpXqwU5YHf-24">
          <mxGeometry x="0.3352" y="-2" relative="1" as="geometry">
            <mxPoint x="72" y="-28" as="offset" />
          </mxGeometry>
        </mxCell>
        <mxCell id="hy8dyhueCYfpXqwU5YHf-13" value="&lt;strong&gt;&lt;span style=&quot;font-size:11.0pt;line-height:&lt;br/&gt;107%;font-family:&amp;quot;Calibri&amp;quot;,sans-serif;mso-ascii-theme-font:minor-latin;&lt;br/&gt;mso-fareast-font-family:Calibri;mso-fareast-theme-font:minor-latin;mso-hansi-theme-font:&lt;br/&gt;minor-latin;mso-bidi-font-family:Arial;mso-bidi-theme-font:minor-bidi;&lt;br/&gt;mso-ansi-language:EN-US;mso-fareast-language:EN-US;mso-bidi-language:AR-SA&quot;&gt;SMS&lt;br/&gt;Gateway&lt;/span&gt;&lt;/strong&gt;" style="whiteSpace=wrap;html=1;rounded=0;shadow=0;comic=0;labelBackgroundColor=none;strokeWidth=1;fontFamily=Verdana;fontSize=12;align=center;" vertex="1" parent="1">
          <mxGeometry x="-210" y="40" width="120" height="50" as="geometry" />
        </mxCell>
        <mxCell id="hy8dyhueCYfpXqwU5YHf-75" style="edgeStyle=orthogonalEdgeStyle;shape=connector;rounded=1;orthogonalLoop=1;jettySize=auto;html=1;strokeColor=default;align=center;verticalAlign=middle;fontFamily=Helvetica;fontSize=11;fontColor=default;labelBackgroundColor=default;endArrow=classic;" edge="1" parent="1" source="hy8dyhueCYfpXqwU5YHf-14" target="hy8dyhueCYfpXqwU5YHf-9">
          <mxGeometry relative="1" as="geometry" />
        </mxCell>
        <mxCell id="hy8dyhueCYfpXqwU5YHf-76" value="Session Details" style="edgeLabel;html=1;align=center;verticalAlign=middle;resizable=0;points=[];fontFamily=Helvetica;fontSize=11;fontColor=default;labelBackgroundColor=default;" vertex="1" connectable="0" parent="hy8dyhueCYfpXqwU5YHf-75">
          <mxGeometry x="0.4376" y="1" relative="1" as="geometry">
            <mxPoint y="-15" as="offset" />
          </mxGeometry>
        </mxCell>
        <mxCell id="hy8dyhueCYfpXqwU5YHf-14" value="&lt;strong&gt;&lt;span style=&quot;font-size:11.0pt;line-height:&lt;br/&gt;107%;font-family:&amp;quot;Calibri&amp;quot;,sans-serif;mso-ascii-theme-font:minor-latin;&lt;br/&gt;mso-fareast-font-family:Calibri;mso-fareast-theme-font:minor-latin;mso-hansi-theme-font:&lt;br/&gt;minor-latin;mso-bidi-font-family:Arial;mso-bidi-theme-font:minor-bidi;&lt;br/&gt;mso-ansi-language:EN-US;mso-fareast-language:EN-US;mso-bidi-language:AR-SA&quot;&gt;D6:&lt;br/&gt;Session Data&lt;/span&gt;&lt;/strong&gt;" style="html=1;rounded=0;shadow=0;comic=0;labelBackgroundColor=none;strokeWidth=2;fontFamily=Verdana;fontSize=12;align=center;shape=mxgraph.ios7ui.horLines;" vertex="1" parent="1">
          <mxGeometry x="-160" y="249" width="135" height="50" as="geometry" />
        </mxCell>
        <mxCell id="hy8dyhueCYfpXqwU5YHf-26" style="edgeStyle=orthogonalEdgeStyle;rounded=1;orthogonalLoop=1;jettySize=auto;html=1;" edge="1" parent="1" source="hy8dyhueCYfpXqwU5YHf-3" target="hy8dyhueCYfpXqwU5YHf-4">
          <mxGeometry relative="1" as="geometry">
            <Array as="points">
              <mxPoint x="-30" y="609" />
            </Array>
          </mxGeometry>
        </mxCell>
        <mxCell id="hy8dyhueCYfpXqwU5YHf-27" value="New User Profile" style="edgeLabel;html=1;align=center;verticalAlign=middle;resizable=0;points=[];" vertex="1" connectable="0" parent="hy8dyhueCYfpXqwU5YHf-26">
          <mxGeometry x="-0.681" y="-1" relative="1" as="geometry">
            <mxPoint as="offset" />
          </mxGeometry>
        </mxCell>
        <mxCell id="hy8dyhueCYfpXqwU5YHf-32" style="edgeStyle=orthogonalEdgeStyle;rounded=1;orthogonalLoop=1;jettySize=auto;html=1;" edge="1" parent="1" source="hy8dyhueCYfpXqwU5YHf-6" target="hy8dyhueCYfpXqwU5YHf-4">
          <mxGeometry relative="1" as="geometry">
            <Array as="points">
              <mxPoint x="-480" y="560" />
              <mxPoint x="-480" y="590" />
              <mxPoint x="-40" y="590" />
            </Array>
          </mxGeometry>
        </mxCell>
        <mxCell id="hy8dyhueCYfpXqwU5YHf-33" value="Read User Credentials" style="edgeLabel;html=1;align=center;verticalAlign=middle;resizable=0;points=[];" vertex="1" connectable="0" parent="hy8dyhueCYfpXqwU5YHf-32">
          <mxGeometry x="-0.0529" y="1" relative="1" as="geometry">
            <mxPoint x="-256" y="-29" as="offset" />
          </mxGeometry>
        </mxCell>
        <mxCell id="hy8dyhueCYfpXqwU5YHf-47" style="edgeStyle=orthogonalEdgeStyle;shape=connector;rounded=1;orthogonalLoop=1;jettySize=auto;html=1;strokeColor=default;align=center;verticalAlign=middle;fontFamily=Helvetica;fontSize=11;fontColor=default;labelBackgroundColor=default;endArrow=classic;" edge="1" parent="1" source="hy8dyhueCYfpXqwU5YHf-8" target="hy8dyhueCYfpXqwU5YHf-4">
          <mxGeometry relative="1" as="geometry">
            <Array as="points">
              <mxPoint x="-470" y="500" />
              <mxPoint x="-470" y="560" />
              <mxPoint x="-60" y="560" />
            </Array>
          </mxGeometry>
        </mxCell>
        <mxCell id="hy8dyhueCYfpXqwU5YHf-48" value="Read Current Profile" style="edgeLabel;html=1;align=center;verticalAlign=middle;resizable=0;points=[];fontFamily=Helvetica;fontSize=11;fontColor=default;labelBackgroundColor=default;" vertex="1" connectable="0" parent="hy8dyhueCYfpXqwU5YHf-47">
          <mxGeometry x="-0.7493" y="3" relative="1" as="geometry">
            <mxPoint y="2" as="offset" />
          </mxGeometry>
        </mxCell>
        <mxCell id="hy8dyhueCYfpXqwU5YHf-7" value="&lt;strong&gt;&lt;span style=&quot;font-size:11.0pt;line-height:&lt;br/&gt;107%;font-family:&amp;quot;Calibri&amp;quot;,sans-serif;mso-ascii-theme-font:minor-latin;&lt;br/&gt;mso-fareast-font-family:Calibri;mso-fareast-theme-font:minor-latin;mso-hansi-theme-font:&lt;br/&gt;minor-latin;mso-bidi-font-family:Arial;mso-bidi-theme-font:minor-bidi;&lt;br/&gt;mso-ansi-language:EN-US;mso-fareast-language:EN-US;mso-bidi-language:AR-SA&quot;&gt;P1.3&lt;/span&gt;&lt;/strong&gt;" style="swimlane;html=1;fontStyle=0;childLayout=stackLayout;horizontal=1;startSize=26;fillColor=#e0e0e0;horizontalStack=0;resizeParent=1;resizeLast=0;collapsible=1;marginBottom=0;swimlaneFillColor=#ffffff;align=center;rounded=1;shadow=0;comic=0;labelBackgroundColor=none;strokeWidth=1;fontFamily=Verdana;fontSize=12" vertex="1" parent="1">
          <mxGeometry x="-800" y="450" width="140" height="52" as="geometry" />
        </mxCell>
        <mxCell id="hy8dyhueCYfpXqwU5YHf-8" value="&lt;strong&gt;&lt;span style=&quot;font-size:11.0pt;line-height:&lt;br/&gt;107%;font-family:&amp;quot;Calibri&amp;quot;,sans-serif;mso-ascii-theme-font:minor-latin;&lt;br/&gt;mso-fareast-font-family:Calibri;mso-fareast-theme-font:minor-latin;mso-hansi-theme-font:&lt;br/&gt;minor-latin;mso-bidi-font-family:Arial;mso-bidi-theme-font:minor-bidi;&lt;br/&gt;mso-ansi-language:EN-US;mso-fareast-language:EN-US;mso-bidi-language:AR-SA&quot;&gt;Profile&lt;br/&gt;Management&lt;/span&gt;&lt;/strong&gt;" style="text;html=1;strokeColor=none;fillColor=none;spacingLeft=4;spacingRight=4;whiteSpace=wrap;overflow=hidden;rotatable=0;points=[[0,0.5],[1,0.5]];portConstraint=eastwest;align=center;" vertex="1" parent="hy8dyhueCYfpXqwU5YHf-7">
          <mxGeometry y="26" width="140" height="26" as="geometry" />
        </mxCell>
      </root>
    </mxGraphModel>
  </diagram>
</mxfile>
